<?xml version="1.0" encoding="UTF-8"?>
<svg id="_레이어_1" data-name="레이어_1" xmlns="http://www.w3.org/2000/svg" width="45.5mm" height="7.79mm" version="1.1" viewBox="0 0 128.98 22.09">
  <!-- Generator: Adobe Illustrator 30.3.0, SVG Export Plug-In . SVG Version: 2.1.3 Build 182)  -->
  <path d="M120.99,22.09c4.48,0,7.99-1.81,7.99-4.75s-2.13-4.02-5.72-5.27c-3.97-1.38-4.83-1.7-4.83-2.24s.65-.84,2-.84,2.7.78,2.89,1.76l5.4.05c0-3.13-3.38-6.16-8.29-6.16s-7.4,2.35-7.4,4.86,1.54,3.86,4.81,5.18c3.02,1.22,5.75,1.86,5.75,2.38,0,.49-.86.7-2.4.7s-2.92-.78-3.19-1.57h-5.4c.19,3.27,3.48,5.89,8.4,5.89M103.7,22.09c4.48,0,7.99-1.81,7.99-4.75s-2.13-4.02-5.72-5.27c-3.97-1.38-4.83-1.7-4.83-2.24s.65-.84,2-.84,2.7.78,2.89,1.76l5.4.05c0-3.13-3.38-6.16-8.29-6.16s-7.4,2.35-7.4,4.86,1.54,3.86,4.81,5.18c3.02,1.22,5.75,1.86,5.75,2.38,0,.49-.86.7-2.4.7s-2.92-.78-3.19-1.57h-5.4c.19,3.27,3.48,5.89,8.4,5.89M89.01,11.72h-6.86c.08-1.51,1.49-2.78,3.43-2.78s3.35,1.27,3.43,2.78M85.75,21.95c4.83,0,8.1-3.02,8.37-5.45l-5.4-.08c-.49.73-1.78,1.27-3.19,1.27-1.89,0-3.27-1.22-3.35-2.51h12.12c.08-.57.14-1.67.11-2.21-.14-4.29-2.97-8.29-8.86-8.29-4.72,0-8.91,3.13-8.91,8.64s3.67,8.64,9.1,8.64M64.59,21.11h5.4v-7.15c0-2.38,2.05-4.08,4.27-4.05.49,0,.97.08,1.46.27l.05-4.72c-.46-.27-1.3-.41-2.11-.41-1.89,0-3.54,1.32-4,3.16v-2.89h-5.08v15.8ZM54.78,10.31h-4.02l.03-5.67h4c1.81,0,2.84,1.08,2.84,2.83s-1.03,2.84-2.84,2.84M45.36,21.33h5.43l-.03-6.35h4.08c5.32,0,8.26-2.94,8.26-7.48s-2.94-7.51-8.26-7.51h-9.48v21.33ZM26.52,21.11h5.4v-8.32c0-2.02,1.24-3.51,3-3.51s2.46,1.19,2.46,3.24v8.59h5.4v-10.13c0-3.59-2.19-6.16-5.89-6.16-2.4,0-4.1,1.08-5.02,2.67v-2.02h-5.35v15.63ZM18.69,4.27h5.4V0h-5.4v4.27ZM18.69,21.11h5.4V5.51h-5.4v15.61ZM0,21.11h5.4v-8.32c0-2.02,1.24-3.51,3-3.51s2.46,1.19,2.46,3.24v8.59h5.4v-10.13c0-3.59-2.19-6.16-5.89-6.16-2.4,0-4.1,1.08-5.02,2.65V0H0v21.11Z" style="fill: #020413;"/>
</svg>